# xmcd
#
# Track frame offsets:
#	150
#	17646
#	31984
#	47276
#	64225
#	80823
#	97677
#	111927
#	130180
#	143699
#	158014
#	168448
#	183984
#	199210
#	214189
#	231440
#	244528
#
# Disc length: 3457 seconds
#
# Revision: 0
# Processed by: cddbd v1.5.2PL0 Copyright (c) Steve Scherf et al.
# Submitted via: audiograbber 1.83.01
#
DISCID=df0d7f11
DTITLE=Various Artist - CDX 628
DYEAR=2016
DGENRE=Country
TTITLE0=Brandy Clark - Girl Next Door
TTITLE1=Billy Currington - It Don't Hurt Like It Used To
TTITLE2=Dierks Bentley - Somewhere On A Beach
TTITLE3=Chris Young w. Cassadee Pope - Think of You
TTITLE4=Lorrie Morgan - How Does It Feel
TTITLE5=Charee White - Alive
TTITLE6=Simba Jordan - Country Thang
TTITLE7=Corinne Cook - Dressed Up For Goodbye
TTITLE8=David Holler - Drive On
TTITLE9=Ashland Belle - Fastest Car
TTITLE10=Cody Joe Hodges - Hellbent On Loving You
TTITLE11=James Robert Webb - How That Feels
TTITLE12=Diane Pari - I Saw Red
TTITLE13=Broseph  E Lee - Right Where She Wants Me
TTITLE14=Dick Barnes - Run Remus Run
TTITLE15=Nick Smith - She Ain't LA
TTITLE16=Diana UptonHill - Southern Gentlemen
EXTD=
EXTT0=
EXTT1=
EXTT2=
EXTT3=
EXTT4=
EXTT5=
EXTT6=
EXTT7=
EXTT8=
EXTT9=
EXTT10=
EXTT11=
EXTT12=
EXTT13=
EXTT14=
EXTT15=
EXTT16=
PLAYORDER=
